<svg xmlns="http://www.w3.org/2000/svg" width="231" height="103" viewBox="0 0 231 103" fill="none"><path d="M65.1202 11.0727L71.2965 15.6697C71.2965 15.6697 68.9277 20.4561 68.9032 20.5171C71.0085 22.6008 72.8489 24.9501 74.3688 27.5085L79.1668 26.1416L82.2203 33.232L77.9786 35.9958C78.7723 38.8909 79.2 41.9379 79.2094 45.0813L83.7713 46.2136L82.8502 53.873L78.0349 54.1428C77.2166 57.2023 75.9894 60.0971 74.4143 62.7636L77.6649 65.8856L73.016 72.0602L68.7916 69.9417C66.5502 72.1402 64.0125 74.0398 61.2423 75.5762L62.485 79.886L55.3532 82.9225L52.7231 78.9296C50.0016 79.605 47.1527 79.9643 44.2201 79.9643C43.9562 79.9643 43.692 79.9621 43.4293 79.956L42.2981 84.4647L34.5953 83.5477L34.3116 78.5495C33.4393 78.2933 32.5806 78.0055 31.7382 77.685L40.1693 69.0531C41.4871 69.272 42.8402 69.3865 44.2201 69.3865C57.6686 69.3865 68.5704 58.5467 68.5704 45.175C68.5704 37.9607 65.3985 31.4846 60.3659 27.0495L37.298 49.7781L26.123 49.8667L65.1202 11.0727Z" fill="#676669"></path><path d="M22.8733 78.388L16.6976 73.7911C16.6976 73.7911 19.0665 69.0046 19.091 68.9436C16.9857 66.8599 15.1449 64.5114 13.6253 61.9522L8.82666 63.3199L5.77313 56.2283L10.0156 53.4649C9.22116 50.5705 8.79345 47.5236 8.78551 44.3794L4.2229 43.2478L5.14401 35.5892L9.95928 35.3186C10.7772 32.2587 12.0047 29.3643 13.5795 26.6978L10.3292 23.5752L14.9778 17.4005L19.2022 19.5198C21.4432 17.3205 23.9817 15.4209 26.7512 13.8838L25.5092 9.5747L32.6402 6.53818L35.2707 10.5318C37.9926 9.85571 40.8407 9.49718 43.7741 9.49718C44.0386 9.49718 44.3021 9.49934 44.5649 9.50544L45.6957 4.99677L53.3988 5.913L53.6822 10.9115C54.5546 11.1674 55.4129 11.456 56.256 11.7765L47.8242 20.4076C46.5071 20.1887 45.1536 20.0742 43.7741 20.0742C30.3255 20.0742 19.4231 30.9147 19.4231 44.2861C19.4231 51.4993 22.8303 58.2754 27.8639 62.7109L50.6961 39.6834L61.7419 39.7925L22.8733 78.388Z" fill="#983128"></path><path d="M103.612 58.2147C104.042 58.2147 104.355 58.0432 104.355 57.5615C104.355 57.0404 103.76 56.9705 103.369 56.9705H102.845V58.2147H103.611H103.612ZM101 61.2627V55.6641H103.714C105.333 55.6641 106.115 56.4027 106.115 57.5537C106.115 58.7591 105.395 59.5211 103.776 59.5211H102.846V61.2627H101H101Z" fill="#983128"></path><path d="M108.504 58.4326C108.504 59.1478 108.723 60.0422 109.607 60.0422C110.404 60.0422 110.717 59.3578 110.717 58.4326C110.717 57.6703 110.404 56.8617 109.591 56.8851C108.754 56.8851 108.504 57.7248 108.504 58.4326ZM112.563 58.4326C112.563 60.3379 111.272 61.411 109.607 61.411C107.839 61.411 106.658 60.3221 106.658 58.4168C106.658 56.6597 107.855 55.5163 109.607 55.5163C111.616 55.5163 112.563 56.955 112.563 58.4326Z" fill="#983128"></path><path d="M118.362 59.1242H118.377L119.011 55.6638H120.794L119.394 61.2628H117.58L116.931 58.0123H116.915L116.274 61.2628H114.459L113.06 55.6638H114.843L115.476 59.1242H115.492L116.164 55.6638H117.689L118.362 59.1242Z" fill="#983128"></path><path d="M121.587 61.2628V55.6638H126.178V56.9705H123.433V57.7712H125.756V59.0775H123.433V59.9564H126.287V61.2628H121.587Z" fill="#983128"></path><path d="M129.115 58.0823H129.842C130.413 58.0823 130.718 57.9423 130.718 57.5537C130.718 57.1571 130.405 56.9705 129.975 56.9705H129.115V58.0823ZM129.115 59.3111V61.2627H127.269V55.6641H129.928C131.805 55.6641 132.423 56.1694 132.423 57.2579C132.423 57.9036 132.134 58.448 131.477 58.6267C132.071 58.8446 132.431 58.9845 132.431 60.1118C132.431 60.8428 132.408 61.0919 132.627 61.0919V61.2627H130.757C130.71 61.1386 130.664 60.7807 130.664 60.283C130.664 59.5523 130.538 59.3111 129.678 59.3111H129.115Z" fill="#983128"></path><path d="M139.269 57.2892C139.238 57.0946 139.136 56.9784 139.003 56.908C138.87 56.838 138.706 56.8072 138.526 56.8072C138.119 56.8072 137.939 56.9235 137.939 57.1259C137.939 57.966 141.177 57.4449 141.177 59.4819C141.177 60.7808 140.09 61.4106 138.541 61.4106C137.055 61.4106 136.086 60.5475 136.047 59.5365H137.814C137.853 59.7385 137.963 59.8864 138.119 59.9797C138.268 60.073 138.463 60.1197 138.643 60.1197C139.104 60.1197 139.41 59.9722 139.41 59.7077C139.41 58.86 136.172 59.4432 136.172 57.305C136.172 56.1152 137.204 55.5163 138.612 55.5163C140.176 55.5163 140.888 56.3098 141.021 57.2892H139.269Z" fill="#983128"></path><path d="M145.553 61.2628H143.708V59.2254L141.612 55.6638H143.676L144.646 57.5616L145.616 55.6638H147.649L145.553 59.1941V61.2628Z" fill="#983128"></path><path d="M151.305 57.2892C151.274 57.0946 151.173 56.9784 151.04 56.908C150.907 56.838 150.742 56.8072 150.563 56.8072C150.156 56.8072 149.976 56.9235 149.976 57.1259C149.976 57.966 153.214 57.4449 153.214 59.4819C153.214 60.7808 152.126 61.4106 150.578 61.4106C149.092 61.4106 148.123 60.5475 148.083 59.5365H149.851C149.89 59.7385 149.999 59.8864 150.156 59.9797C150.304 60.073 150.5 60.1197 150.68 60.1197C151.141 60.1197 151.446 59.9722 151.446 59.7077C151.446 58.86 148.208 59.4432 148.208 57.305C148.208 56.1152 149.241 55.5163 150.649 55.5163C152.213 55.5163 152.924 56.3098 153.057 57.2892H151.305Z" fill="#983128"></path><path d="M153.867 55.6641H159.029V57.1338H157.371V61.2631H155.525V57.1338H153.867V55.6641Z" fill="#983128"></path><path d="M160.019 61.2628V55.6638H164.61V56.9705H161.865V57.7712H164.187V59.0775H161.865V59.9564H164.719V61.2628H160.019Z" fill="#983128"></path><path d="M165.693 61.2628L165.693 55.6638H167.922L168.915 59.1554L169.908 55.6638H172.137V61.2628H170.479V59.552L170.502 58.6813L170.596 57.67H170.58L169.556 61.2628H168.273L167.249 57.67H167.233L167.311 58.4943L167.351 59.3653V61.2628H165.693H165.693Z" fill="#983128"></path><path d="M178.575 58.2147C179.005 58.2147 179.318 58.0432 179.318 57.5615C179.318 57.0404 178.724 56.9705 178.333 56.9705H177.809V58.2147H178.575ZM175.963 61.2627V55.6641H178.677C180.296 55.6641 181.078 56.4027 181.078 57.5537C181.078 58.7591 180.358 59.5211 178.739 59.5211H177.809V61.2627H175.963Z" fill="#983128"></path><path d="M181.911 61.2628V55.6638H186.502V56.9705H183.757V57.7712H186.08V59.0775H183.757V59.9564H186.611V61.2628H181.911Z" fill="#983128"></path><path d="M189.439 58.0823H190.166C190.737 58.0823 191.042 57.9423 191.042 57.5537C191.042 57.1571 190.73 56.9705 190.299 56.9705H189.439V58.0823H189.439ZM189.439 59.3111V61.2627H187.594V55.6641H190.253C192.129 55.6641 192.747 56.1694 192.747 57.2579C192.747 57.9036 192.458 58.448 191.801 58.6267C192.396 58.8446 192.756 58.9845 192.756 60.1118C192.756 60.8428 192.732 61.0919 192.951 61.0919V61.2627H191.082C191.035 61.1386 190.988 60.7807 190.988 60.283C190.988 59.5523 190.863 59.3111 190.002 59.3111H189.439Z" fill="#983128"></path><path d="M196.607 54H198.241L196.897 55.1509H195.825L196.607 54ZM193.901 55.6641H195.747V59.0158C195.747 59.5677 195.856 60.0422 196.615 60.0422C197.279 60.0422 197.475 59.6219 197.475 59.0158V55.6641H199.321V58.8288C199.321 60.6254 198.484 61.4106 196.615 61.4106C194.871 61.4106 193.901 60.7499 193.901 58.8213V55.6641Z" fill="#983128"></path><path d="M203.374 61.2628V55.6638H205.22V59.9564H207.754V61.2628H203.374Z" fill="#983128"></path><path d="M207.673 55.6641H212.834V57.1338H211.176V61.2631H209.331V57.1338H207.673V55.6641Z" fill="#983128"></path><path d="M215.584 59.9567H215.975C216.835 59.9567 217.304 59.5056 217.304 58.448C217.304 57.2816 216.921 56.9708 215.936 56.9708H215.584V59.9567ZM213.738 61.2631V55.6641H216.209C218.024 55.6641 219.15 56.5039 219.15 58.3471C219.15 60.4545 217.969 61.2631 216.162 61.2631H213.738Z" fill="#983128"></path><path d="M222.494 57.3516L221.923 59.3578H223.088L222.494 57.3516ZM219.553 61.2627L221.57 55.6641H223.448L225.465 61.2627H223.628L223.409 60.5241H221.57L221.359 61.2627H219.553Z" fill="#983128"></path><path d="M227.832 59.661H226.174V61.2631H227.832V59.661Z" fill="#983128"></path><path d="M152.555 15.9299H165.003C168.404 15.9299 171.162 18.595 171.162 21.882C171.162 23.3409 170.619 24.6777 169.718 25.7124C170.696 26.7959 171.291 28.2296 171.291 29.8001V34.9408H166.012V29.0601C166.012 28.3839 165.461 27.8356 164.781 27.8356H157.773L157.769 34.9408H152.555V15.9299ZM157.707 20.7325V22.6515H164.713C165.393 22.6515 165.945 22.2212 165.945 21.6918C165.945 21.1621 165.393 20.7325 164.713 20.7325H157.707Z" fill="#231F20"></path><path d="M180.91 15.9285H187.325C190.726 15.9285 193.484 18.6703 193.484 22.0525V28.8171C193.484 32.1992 190.726 34.9415 187.325 34.9415H180.91C177.508 34.9415 174.75 32.1992 174.75 28.8171V22.0525C174.75 18.6703 177.508 15.9285 180.91 15.9285ZM181.197 20.7296C180.517 20.7296 179.966 21.278 179.966 21.9541V28.9151C179.966 29.5923 180.517 30.1407 181.197 30.1407H187.038C187.718 30.1407 188.269 29.5923 188.269 28.9151V21.9541C188.269 21.278 187.718 20.7296 187.038 20.7296H181.197Z" fill="#231F20"></path><path d="M107.042 34.9404H94.5969V15.9295H107.042C110.444 15.9295 113.201 18.6718 113.201 22.0546V28.8164C113.201 32.1982 110.444 34.9404 107.042 34.9404ZM99.8746 20.6977V30.1722H106.82C107.5 30.1722 108.052 29.6246 108.052 28.947V21.9229C108.052 21.2461 107.5 20.6977 106.82 20.6977H99.8746Z" fill="#231F20"></path><path d="M134.512 15.9299H149.707V20.73H144.813V34.9408H139.406V20.73H134.512V15.9299Z" fill="#231F20"></path><path d="M202.449 15.9299H197.043V34.9408H202.449V15.9299Z" fill="#231F20"></path><path d="M206.152 15.9299H221.347V20.73H216.453V34.9408H211.046V20.73H206.152V15.9299Z" fill="#231F20"></path><path d="M122.02 15.9299H131.824V20.7289H122.306C121.625 20.7289 121.074 21.1883 121.074 21.7539C121.074 22.3206 121.625 22.7792 122.306 22.7792H131.824V28.0907H122.306C121.625 28.0907 121.074 28.5497 121.074 29.1157C121.074 29.6824 121.625 30.1414 122.306 30.1414H131.824V34.9408H122.02C118.618 34.9408 115.861 32.1992 115.861 28.8167V22.0543C115.861 18.6714 118.618 15.9299 122.02 15.9299Z" fill="#231F20"></path><path d="M94.9367 96.2548H4.35547V93.8309H92.4989V46.7513H226.34V49.1759H94.9367V96.2548Z" fill="#983128"></path></svg>